<?xml version="1.0" encoding="UTF-8"?>
<svg width="79px" height="79px" viewBox="0 0 79 79" version="1.1" xmlns="http://www.w3.org/2000/svg" xmlns:xlink="http://www.w3.org/1999/xlink">
    <title>Group 6</title>
    <defs>
        <polygon id="path-1" points="0 0 79 0 79 79 0 79"></polygon>
    </defs>
    <g id="Card-making-web-app" stroke="none" stroke-width="1" fill="none" fill-rule="evenodd">
        <g id="Desktop-Copy-6---Redesign" transform="translate(-27.000000, -25.000000)">
            <g id="Group-6" transform="translate(27.000000, 25.000000)">
                <path d="M72.119859,75 L7.88014101,75 C6.84606345,75 6,74.154694 6,73.1215422 L6,3.87845778 C6,2.845306 6.84606345,2 7.88014101,2 L72.119859,2 C73.1539365,2 74,2.845306 74,3.87845778 L74,73.1215422 C74,74.154694 73.1539365,75 72.119859,75" id="Fill-1" fill="#F0EADE"></path>
                <g id="Group-5">
                    <mask id="mask-2" fill="white">
                        <use xlink:href="#path-1"></use>
                    </mask>
                    <g id="Clip-4"></g>
                    <path d="M69.6652722,24.6805344 C69.7964099,22.5021275 68.9979619,20.269064 68.166219,18.7187355 C66.5489062,15.7039899 64.1117865,13.4561629 61.1849812,11.7442208 C56.9838629,9.28719135 52.37237,8.23662435 47.5625214,8.13327959 C43.8639668,8.05365072 40.2579153,8.72884695 36.7881843,10.0770406 C33.2506071,11.4516201 30.1612539,13.4392005 27.7891533,16.4497056 C24.7180181,20.3471222 23.9754802,24.6406415 25.6091263,29.3319909 C25.7275429,29.6718664 25.8011998,30.1889043 26.136504,30.244189 C26.5449941,30.3114102 26.72576,29.79877 26.9369938,29.487008 C29.642828,25.492529 32.3632681,21.5074734 35.0284261,17.4859802 C37.1635365,14.264388 41.5399239,13.315281 44.669011,15.8487982 C47.4186626,18.0751082 47.6082233,22.0468137 46.0432086,24.3774108 C44.5234246,26.6406295 43.1624193,29.0100202 41.6526866,31.2803066 C41.1246806,32.0743964 41.2903696,32.5471437 41.8829236,33.1711387 C42.7452915,34.0792533 43.4066339,35.1631168 43.3712974,36.4615228 C43.3496243,37.2549843 43.6370279,37.7489346 44.2559665,38.1436236 C45.1678055,38.7248986 45.7346031,39.5480443 45.9152119,40.6169872 C46.0020612,41.1304128 46.2955898,41.299094 46.790458,41.3080464 C50.4615286,41.3743252 54.0353846,41.0383762 57.1874012,38.8852557 C57.8413622,38.4385802 58.5457366,38.3467008 59.2889027,38.600508 C61.0017025,39.1852383 62.7143453,39.7709109 64.4211772,40.3727606 C66.029224,40.9399003 67.6155976,41.5728477 69.2739007,41.9840279 C70.0465924,42.1756398 70.2688198,41.930942 69.9939803,41.1747034 C69.8160413,40.6849937 69.5679005,40.21633 69.3112789,39.760545 C68.384363,38.1148818 67.4541491,36.4707892 66.4981787,34.8419313 C65.9354644,33.8830867 66.0428874,33.1340728 66.7733323,32.227843 C68.5323052,30.0456666 69.7712817,27.6051283 69.6652722,24.6805344 M44.0029571,21.1060309 C44.0017007,19.1815881 43.2582205,18.1914888 41.4461644,17.5908956 C40.0776206,17.1373094 38.860003,17.5835138 37.865084,18.9857357 C35.8779158,21.78641 33.9119495,24.6023191 31.9513229,27.4218405 C28.9874536,31.6842621 26.0375618,35.9562643 23.0732213,40.2183717 C22.918526,40.4409242 22.7924139,40.7991755 22.4501994,40.7379226 C22.1191356,40.6787114 22.1037446,40.3100941 22.0134402,40.045921 C21.5815495,38.7808116 21.1911204,37.5004674 20.7257778,36.2477656 C20.1781404,34.7740819 19.2063079,34.4216417 17.7952033,35.1090885 C17.2656268,35.3671363 16.8316945,35.7324553 16.458698,36.1866697 C15.3452054,37.5433445 14.7568918,39.1502141 14.4212734,40.8254044 C13.8700239,43.5758199 13.7663701,46.3912578 13.3203449,49.1635045 C12.8597138,52.0277877 12.2249131,54.8267344 11.0699589,57.4909246 C10.8730168,57.945296 10.907568,58.230515 11.2493113,58.5999175 C13.3159474,60.8340804 15.4940899,62.9496638 17.8608507,64.8637407 C20.0930187,66.6691328 22.4081097,68.3435377 25.2202676,69.1597728 C26.0881323,69.4115383 26.9424906,69.560273 27.8287302,69.1599299 C29.0710048,68.5989155 30.3415486,68.1008817 31.5959162,67.5662532 C34.0650744,66.5139586 36.1257425,64.9424272 37.6849463,62.7412467 C39.0795606,60.7728274 40.4821844,58.8099052 41.8598371,56.8297066 C43.2825635,54.7847997 44.6682258,52.7142922 46.090481,50.6692282 C47.8210276,48.1807869 45.9241638,45.0922236 43.5333741,45.0871977 C42.9160061,45.0857842 42.974272,44.7722946 43.1410604,44.3059867 C43.9373097,42.0785774 42.5378269,39.7650997 40.1957231,39.4638607 C39.5309256,39.3782636 39.6710152,39.1034106 39.8249253,38.6810792 C40.7284406,36.2011191 39.5939031,34.1587251 37.0231328,33.6831508 C36.3676013,33.5619013 36.3005404,33.4048424 36.6848446,32.8581203 C38.8416281,29.7901317 40.9652737,26.6987413 43.1074514,23.6203868 C43.6590151,22.8275535 44.0929474,22.0037796 44.0029571,21.1060309 M39.5770986,0.000769588625 C49.7907632,-3.4508818e-05 60.0042707,-0.000958059309 70.2179352,0.000926647528 C74.9473736,0.00186900095 78.998508,4.05634458 78.9988221,8.78947169 C79.0000522,29.2691673 79.0000522,49.748706 78.9991362,70.2284016 C78.9988221,74.9444093 74.927114,78.9990419 70.1929641,78.999199 C49.765792,79.000011 29.33862,79.000011 8.91144791,78.9985708 C4.0525994,78.9980996 0.0011508589,74.9445664 0.000836756597,70.0839074 C8.52651283e-14,49.6304406 8.52651283e-14,29.1771308 0.00193611465,8.72382106 C0.00240726811,4.10220578 4.08966347,0.00375370778 8.70005706,0.00234017766 C18.9924042,-0.00111511821 29.2847514,0.00124076533 39.5770986,0.000769588625" id="Fill-3" fill="#0D453A" mask="url(#mask-2)"></path>
                </g>
            </g>
        </g>
    </g>
</svg>