<?xml version="1.0" encoding="UTF-8"?>
<svg width="282px" height="81px" viewBox="0 0 282 81" version="1.1" xmlns="http://www.w3.org/2000/svg" xmlns:xlink="http://www.w3.org/1999/xlink">
    <title>Group 2</title>
    <defs>
        <polygon id="path-1" points="0 0 46 0 46 30 0 30"></polygon>
    </defs>
    <g id="Card-making-web-app" stroke="none" stroke-width="1" fill="none" fill-rule="evenodd">
        <g id="Desktop-Copy-6---Redesign" transform="translate(-26.000000, -389.000000)">
            <g id="Group-2" transform="translate(27.000000, 390.000000)">
                <rect id="Rectangle" stroke="#0A1744" fill="#F1EFEF" x="0" y="0" width="280" height="79" rx="4"></rect>
                <text id="Choose-file-to-uploa" font-family="Helvetica" font-size="16" font-weight="normal" fill="#092130">
                    <tspan x="64.8359375" y="63">Choose file to upload</tspan>
                </text>
                <g id="Group-3" transform="translate(117.000000, 12.000000)">
                    <mask id="mask-2" fill="white">
                        <use xlink:href="#path-1"></use>
                    </mask>
                    <g id="Clip-2"></g>
                    <path d="M0,20.1121288 C0.10347311,19.6309458 0.174256282,19.1398172 0.31573257,18.6701167 C1.33074164,15.2989422 3.54456188,13.1649922 6.93864198,12.2816479 C7.22078407,12.2082318 7.32236602,12.094491 7.37937079,11.8212601 C8.64617343,5.74878801 13.6648444,1.03415262 19.7818252,0.157770214 C25.9453645,-0.725122 31.8472941,2.14633461 34.942572,7.54712146 C35.095035,7.81330012 35.2509201,7.92324349 35.5635007,7.93255612 C40.5708248,8.08137748 45.0361983,12.0404235 45.845702,17.0331722 C46.8051472,22.950946 43.2058319,28.3753309 37.3952179,29.7104737 C36.5714855,29.8998005 35.7051571,29.9675205 34.8575602,29.9748441 C31.487975,30.0040478 28.1179396,29.9873212 24.7480842,29.9860554 C24.6320935,29.985965 24.5161027,29.9689671 24.3801198,29.9582983 L24.3801198,18.7102605 C24.4878255,18.7965154 24.5796815,18.8570024 24.655868,18.9331309 C25.4731164,19.7500209 26.2858621,20.5715221 27.1041012,21.3874176 C27.7408796,22.0224851 28.5299408,22.0704045 29.1017896,21.5165287 C29.6695859,20.966631 29.6367159,20.1114055 29.0066016,19.4761571 C27.357966,17.8140775 25.7064488,16.1548007 24.0497083,14.5007679 C23.3882549,13.8405652 22.6209869,13.8478888 21.9566517,14.5124313 C20.3015322,16.1681819 18.6492945,17.8267354 16.9999385,19.4881821 C16.3892761,20.1033587 16.3515431,20.9452934 16.895835,21.4961855 C17.4556164,22.0628098 18.2645798,22.0321594 18.8942439,21.4076703 C19.6933012,20.6151016 20.4837133,19.8137628 21.2791685,19.0174871 C21.3803002,18.9164043 21.4893567,18.8233684 21.6387578,18.68612 L21.6387578,29.9477199 C21.5516747,29.9609203 21.4683739,29.9846088 21.3850731,29.9845183 C17.146638,29.9817155 12.9071222,30.0362351 8.67012804,29.9558571 C4.24212734,29.8718626 0.678383757,26.5764549 0.0788881151,22.1701311 C0.0670909198,22.0836954 0.0269264228,22.0012379 0,21.9168817 C0,21.3152672 0,20.7137432 0,20.1121288" id="Fill-1" fill="#0D453A" mask="url(#mask-2)"></path>
                </g>
            </g>
        </g>
    </g>
</svg>